# MagicaVoxel @ Ephtracy

# group
o 

# material
mtllib tile-2.mtl
usemtl palette

# normals
vn -1 0 0
vn 1 0 0
vn 0 0 1
vn 0 0 -1
vn 0 -1 0
vn 0 1 0

# texcoords
vt 0.939453 0.5
vt 0.947266 0.5
vt 0.970703 0.5
vt 0.974609 0.5

# verts
v -0.8 0 0.8
v -0.8 0 -0.8
v -0.8 0.2 0.8
v -0.8 0.2 -0.8
v -0.8 0.5 0.8
v -0.8 0.5 -0.8
v -0.8 0.7 0.8
v -0.8 0.7 -0.8
v -0.8 0.8 0.8
v -0.8 0.8 -0.8
v 0.8 0 0.8
v 0.8 0 -0.8
v 0.8 0.2 0.8
v 0.8 0.2 -0.8
v 0.8 0.5 0.8
v 0.8 0.5 -0.8
v 0.8 0.7 0.8
v 0.8 0.7 -0.8
v 0.8 0.8 0.8
v 0.8 0.8 -0.8
v -0.8 0 0.8
v -0.8 0.2 0.8
v -0.8 0.5 0.8
v -0.8 0.7 0.8
v -0.8 0.8 0.8
v 0.8 0 0.8
v 0.8 0.2 0.8
v 0.8 0.5 0.8
v 0.8 0.7 0.8
v 0.8 0.8 0.8
v -0.8 0 -0.8
v -0.8 0.2 -0.8
v -0.8 0.5 -0.8
v -0.8 0.7 -0.8
v -0.8 0.8 -0.8
v 0.8 0 -0.8
v 0.8 0.2 -0.8
v 0.8 0.5 -0.8
v 0.8 0.7 -0.8
v 0.8 0.8 -0.8
v -0.8 0 0.8
v 0.8 0 0.8
v -0.8 0 -0.8
v 0.8 0 -0.8
v -0.8 0.8 0.8
v 0.8 0.8 0.8
v -0.7 0.8 0.7
v -0.1 0.8 0.7
v 0.1 0.8 0.7
v 0.7 0.8 0.7
v -0.7 0.8 0.1
v -0.1 0.8 0.1
v 0.1 0.8 0.1
v 0.7 0.8 0.1
v -0.7 0.8 -0.1
v -0.1 0.8 -0.1
v 0.1 0.8 -0.1
v 0.7 0.8 -0.1
v -0.7 0.8 -0.7
v -0.1 0.8 -0.7
v 0.1 0.8 -0.7
v 0.7 0.8 -0.7
v -0.8 0.8 -0.8
v 0.8 0.8 -0.8

# faces
f 3/2/1 2/2/1 1/2/1
f 4/2/1 2/2/1 3/2/1
f 5/1/1 4/1/1 3/1/1
f 6/1/1 4/1/1 5/1/1
f 7/3/1 6/3/1 5/3/1
f 8/3/1 6/3/1 7/3/1
f 9/4/1 8/4/1 7/4/1
f 10/4/1 8/4/1 9/4/1
f 11/2/2 12/2/2 13/2/2
f 13/2/2 12/2/2 14/2/2
f 13/1/2 14/1/2 15/1/2
f 15/1/2 14/1/2 16/1/2
f 15/3/2 16/3/2 17/3/2
f 17/3/2 16/3/2 18/3/2
f 17/4/2 18/4/2 19/4/2
f 19/4/2 18/4/2 20/4/2
f 26/2/3 22/2/3 21/2/3
f 27/1/3 23/1/3 22/1/3
f 27/2/3 22/2/3 26/2/3
f 28/3/3 24/3/3 23/3/3
f 28/1/3 23/1/3 27/1/3
f 29/4/3 25/4/3 24/4/3
f 29/3/3 24/3/3 28/3/3
f 30/4/3 25/4/3 29/4/3
f 31/2/4 32/2/4 36/2/4
f 32/1/4 33/1/4 37/1/4
f 36/2/4 32/2/4 37/2/4
f 33/3/4 34/3/4 38/3/4
f 37/1/4 33/1/4 38/1/4
f 34/4/4 35/4/4 39/4/4
f 38/3/4 34/3/4 39/3/4
f 39/4/4 35/4/4 40/4/4
f 43/2/5 42/2/5 41/2/5
f 44/2/5 42/2/5 43/2/5
f 45/4/6 46/4/6 47/4/6
f 47/4/6 46/4/6 48/4/6
f 48/4/6 46/4/6 49/4/6
f 49/4/6 46/4/6 50/4/6
f 45/4/6 47/4/6 51/4/6
f 47/3/6 48/3/6 51/3/6
f 48/4/6 49/4/6 52/4/6
f 51/3/6 48/3/6 52/3/6
f 49/3/6 50/3/6 53/3/6
f 52/4/6 49/4/6 53/4/6
f 50/4/6 46/4/6 54/4/6
f 53/3/6 50/3/6 54/3/6
f 52/4/6 53/4/6 55/4/6
f 51/4/6 52/4/6 55/4/6
f 53/4/6 54/4/6 55/4/6
f 45/4/6 51/4/6 55/4/6
f 55/4/6 54/4/6 56/4/6
f 56/4/6 54/4/6 57/4/6
f 54/4/6 46/4/6 58/4/6
f 57/4/6 54/4/6 58/4/6
f 45/4/6 55/4/6 59/4/6
f 55/3/6 56/3/6 59/3/6
f 56/4/6 57/4/6 60/4/6
f 59/3/6 56/3/6 60/3/6
f 57/3/6 58/3/6 61/3/6
f 60/4/6 57/4/6 61/4/6
f 58/4/6 46/4/6 62/4/6
f 61/3/6 58/3/6 62/3/6
f 45/4/6 59/4/6 63/4/6
f 60/4/6 61/4/6 63/4/6
f 61/4/6 62/4/6 63/4/6
f 59/4/6 60/4/6 63/4/6
f 62/4/6 46/4/6 64/4/6
f 63/4/6 62/4/6 64/4/6
