# MagicaVoxel @ Ephtracy

# group
o 

# material
mtllib resource-0.mtl
usemtl palette

# normals
vn -1 0 0
vn 1 0 0
vn 0 0 1
vn 0 0 -1
vn 0 -1 0
vn 0 1 0

# texcoords
vt 0.845703 0.5
vt 0.970703 0.5
vt 0.978516 0.5

# verts
v -0.6 0.8 0.5
v -0.6 0.8 0
v -0.6 0.8 -0.2
v -0.6 0.8 -0.4
v -0.6 0.8 -0.5
v -0.6 0.9 0.5
v -0.6 0.9 0
v -0.6 1.1 0.4
v -0.6 1.1 0.2
v -0.6 1.4 -0.2
v -0.6 1.4 -0.4
v -0.6 1.5 0.5
v -0.6 1.5 0.4
v -0.6 1.5 0.2
v -0.6 1.5 -0.5
v -0.5 0.8 0.6
v -0.5 0.8 0.5
v -0.5 0.8 -0.5
v -0.5 0.8 -0.6
v -0.5 0.9 0.5
v -0.5 1.5 0.6
v -0.5 1.5 0.5
v -0.5 1.5 0.4
v -0.5 1.5 0.2
v -0.5 1.5 -0.5
v -0.5 1.5 -0.6
v -0.5 1.6 0.5
v -0.5 1.6 0.4
v -0.5 1.6 0.2
v -0.5 1.6 -0.5
v -0.1 0 0.1
v -0.1 0 -0.1
v -0.1 0.8 0.1
v -0.1 0.8 -0.1
v 0.1 0 0.1
v 0.1 0 -0.1
v 0.1 0.8 0.1
v 0.1 0.8 -0.1
v 0.5 0.8 0.6
v 0.5 0.8 0.5
v 0.5 0.8 -0.5
v 0.5 0.8 -0.6
v 0.5 1.1 -0.5
v 0.5 1.4 -0.5
v 0.5 1.5 0.6
v 0.5 1.5 0.5
v 0.5 1.5 0.3
v 0.5 1.5 -0.5
v 0.5 1.5 -0.6
v 0.5 1.6 0.5
v 0.5 1.6 0.3
v 0.5 1.6 -0.5
v 0.6 0.8 0.5
v 0.6 0.8 -0.5
v 0.6 0.9 0.2
v 0.6 0.9 -0.2
v 0.6 1 0.2
v 0.6 1 -0.2
v 0.6 1.1 0.4
v 0.6 1.1 0
v 0.6 1.1 -0.2
v 0.6 1.1 -0.5
v 0.6 1.3 0.4
v 0.6 1.3 0
v 0.6 1.4 -0.2
v 0.6 1.4 -0.5
v 0.6 1.5 0.5
v 0.6 1.5 -0.5
v -0.5 0.8 0.6
v -0.5 1.5 0.6
v -0.4 1.2 0.6
v -0.4 1.4 0.6
v -0.3 0.8 0.6
v -0.3 1 0.6
v -0.1 0.8 0.6
v -0.1 1 0.6
v 0.1 1.2 0.6
v 0.1 1.4 0.6
v 0.2 0.9 0.6
v 0.2 1.3 0.6
v 0.4 0.9 0.6
v 0.4 1.3 0.6
v 0.5 0.8 0.6
v 0.5 1.5 0.6
v -0.6 0.8 0.5
v -0.6 0.9 0.5
v -0.6 1.5 0.5
v -0.5 0.8 0.5
v -0.5 0.9 0.5
v -0.5 1.5 0.5
v -0.5 1.6 0.5
v 0 1.5 0.5
v 0 1.6 0.5
v 0.5 0.8 0.5
v 0.5 1.5 0.5
v 0.5 1.6 0.5
v 0.6 0.8 0.5
v 0.6 1.5 0.5
v -0.1 0 0.1
v -0.1 0.8 0.1
v 0.1 0 0.1
v 0.1 0.8 0.1
v -0.1 0 -0.1
v -0.1 0.8 -0.1
v 0.1 0 -0.1
v 0.1 0.8 -0.1
v -0.6 0.8 -0.5
v -0.6 1.5 -0.5
v -0.5 0.8 -0.5
v -0.5 1.5 -0.5
v -0.5 1.6 -0.5
v -0.4 1.5 -0.5
v -0.4 1.6 -0.5
v -0.2 1.5 -0.5
v -0.2 1.6 -0.5
v 0.5 0.8 -0.5
v 0.5 1.1 -0.5
v 0.5 1.4 -0.5
v 0.5 1.5 -0.5
v 0.5 1.6 -0.5
v 0.6 0.8 -0.5
v 0.6 1.1 -0.5
v 0.6 1.4 -0.5
v 0.6 1.5 -0.5
v -0.5 0.8 -0.6
v -0.5 1.5 -0.6
v -0.4 1.3 -0.6
v -0.4 1.5 -0.6
v -0.3 0.8 -0.6
v -0.3 1 -0.6
v -0.2 1.3 -0.6
v -0.2 1.5 -0.6
v 0.2 0.8 -0.6
v 0.2 1 -0.6
v 0.2 1.4 -0.6
v 0.4 1 -0.6
v 0.4 1.4 -0.6
v 0.5 0.8 -0.6
v 0.5 1.5 -0.6
v -0.1 0 0.1
v 0.1 0 0.1
v -0.1 0 -0.1
v 0.1 0 -0.1
v -0.5 0.8 0.6
v -0.3 0.8 0.6
v -0.1 0.8 0.6
v 0.5 0.8 0.6
v -0.6 0.8 0.5
v -0.5 0.8 0.5
v -0.3 0.8 0.5
v -0.1 0.8 0.5
v 0.5 0.8 0.5
v 0.6 0.8 0.5
v -0.1 0.8 0.1
v 0.1 0.8 0.1
v -0.6 0.8 0
v -0.5 0.8 0
v -0.1 0.8 -0.1
v 0.1 0.8 -0.1
v -0.6 0.8 -0.2
v -0.5 0.8 -0.2
v -0.6 0.8 -0.4
v -0.5 0.8 -0.4
v -0.6 0.8 -0.5
v -0.5 0.8 -0.5
v -0.3 0.8 -0.5
v 0.2 0.8 -0.5
v 0.5 0.8 -0.5
v 0.6 0.8 -0.5
v -0.5 0.8 -0.6
v -0.3 0.8 -0.6
v 0.2 0.8 -0.6
v 0.5 0.8 -0.6
v -0.5 1.5 0.6
v 0.5 1.5 0.6
v -0.6 1.5 0.5
v -0.5 1.5 0.5
v 0 1.5 0.5
v 0.5 1.5 0.5
v 0.6 1.5 0.5
v -0.6 1.5 0.4
v -0.5 1.5 0.4
v 0.5 1.5 0.3
v -0.6 1.5 0.2
v -0.5 1.5 0.2
v -0.6 1.5 -0.5
v -0.5 1.5 -0.5
v -0.4 1.5 -0.5
v -0.2 1.5 -0.5
v 0.5 1.5 -0.5
v 0.6 1.5 -0.5
v -0.5 1.5 -0.6
v -0.4 1.5 -0.6
v -0.2 1.5 -0.6
v 0.5 1.5 -0.6
v -0.5 1.6 0.5
v 0 1.6 0.5
v 0.5 1.6 0.5
v -0.5 1.6 0.4
v -0.4 1.6 0.4
v 0 1.6 0.3
v 0.5 1.6 0.3
v -0.5 1.6 0.2
v -0.4 1.6 0.2
v 0 1.6 0.1
v 0.3 1.6 0.1
v -0.4 1.6 -0.2
v -0.2 1.6 -0.2
v 0 1.6 -0.2
v 0.3 1.6 -0.2
v -0.5 1.6 -0.5
v -0.4 1.6 -0.5
v -0.2 1.6 -0.5
v 0.5 1.6 -0.5

# faces
f 6/2/1 2/2/1 1/2/1
f 7/3/1 3/3/1 2/3/1
f 7/2/1 2/2/1 6/2/1
f 8/3/1 7/3/1 6/3/1
f 9/3/1 7/3/1 8/3/1
f 10/2/1 4/2/1 3/2/1
f 10/3/1 7/3/1 9/3/1
f 10/3/1 3/3/1 7/3/1
f 11/3/1 5/3/1 4/3/1
f 11/2/1 4/2/1 10/2/1
f 12/3/1 8/3/1 6/3/1
f 13/2/1 9/2/1 8/2/1
f 13/3/1 8/3/1 12/3/1
f 14/3/1 10/3/1 9/3/1
f 14/2/1 9/2/1 13/2/1
f 14/3/1 11/3/1 10/3/1
f 15/3/1 5/3/1 11/3/1
f 15/3/1 11/3/1 14/3/1
f 20/3/1 17/3/1 16/3/1
f 21/3/1 20/3/1 16/3/1
f 22/3/1 20/3/1 21/3/1
f 25/3/1 19/3/1 18/3/1
f 26/3/1 19/3/1 25/3/1
f 27/3/1 23/3/1 22/3/1
f 28/2/1 24/2/1 23/2/1
f 28/3/1 23/3/1 27/3/1
f 29/3/1 25/3/1 24/3/1
f 29/2/1 24/2/1 28/2/1
f 30/3/1 25/3/1 29/3/1
f 33/1/1 32/1/1 31/1/1
f 34/1/1 32/1/1 33/1/1
f 35/1/2 36/1/2 37/1/2
f 37/1/2 36/1/2 38/1/2
f 41/3/2 42/3/2 43/3/2
f 43/3/2 42/3/2 44/3/2
f 39/3/2 40/3/2 45/3/2
f 45/3/2 40/3/2 46/3/2
f 44/3/2 42/3/2 48/3/2
f 48/3/2 42/3/2 49/3/2
f 46/2/2 47/2/2 50/2/2
f 47/3/2 48/3/2 51/3/2
f 50/2/2 47/2/2 51/2/2
f 51/3/2 48/3/2 52/3/2
f 53/3/2 54/3/2 55/3/2
f 55/3/2 54/3/2 56/3/2
f 53/3/2 55/3/2 57/3/2
f 55/2/2 56/2/2 57/2/2
f 56/3/2 54/3/2 58/3/2
f 57/2/2 56/2/2 58/2/2
f 53/3/2 57/3/2 59/3/2
f 57/3/2 58/3/2 59/3/2
f 59/3/2 58/3/2 60/3/2
f 58/3/2 54/3/2 61/3/2
f 60/3/2 58/3/2 61/3/2
f 61/3/2 54/3/2 62/3/2
f 59/2/2 60/2/2 63/2/2
f 53/3/2 59/3/2 63/3/2
f 60/3/2 61/3/2 64/3/2
f 63/2/2 60/2/2 64/2/2
f 61/2/2 62/2/2 65/2/2
f 64/3/2 61/3/2 65/3/2
f 63/3/2 64/3/2 65/3/2
f 65/2/2 62/2/2 66/2/2
f 53/3/2 63/3/2 67/3/2
f 63/3/2 65/3/2 67/3/2
f 65/3/2 66/3/2 67/3/2
f 67/3/2 66/3/2 68/3/2
f 71/3/3 70/3/3 69/3/3
f 72/3/3 70/3/3 71/3/3
f 73/3/3 71/3/3 69/3/3
f 74/3/3 71/3/3 73/3/3
f 75/2/3 74/2/3 73/2/3
f 76/3/3 71/3/3 74/3/3
f 76/2/3 74/2/3 75/2/3
f 77/2/3 72/2/3 71/2/3
f 77/3/3 71/3/3 76/3/3
f 77/3/3 76/3/3 75/3/3
f 78/3/3 70/3/3 72/3/3
f 78/2/3 72/2/3 77/2/3
f 79/3/3 77/3/3 75/3/3
f 79/3/3 78/3/3 77/3/3
f 80/3/3 78/3/3 79/3/3
f 81/3/3 79/3/3 75/3/3
f 81/2/3 80/2/3 79/2/3
f 82/3/3 78/3/3 80/3/3
f 82/2/3 80/2/3 81/2/3
f 83/3/3 81/3/3 75/3/3
f 83/3/3 82/3/3 81/3/3
f 84/3/3 70/3/3 78/3/3
f 84/3/3 82/3/3 83/3/3
f 84/3/3 78/3/3 82/3/3
f 88/2/3 86/2/3 85/2/3
f 89/3/3 87/3/3 86/3/3
f 89/2/3 86/2/3 88/2/3
f 90/3/3 87/3/3 89/3/3
f 92/3/3 91/3/3 90/3/3
f 93/3/3 91/3/3 92/3/3
f 95/2/3 93/2/3 92/2/3
f 96/2/3 93/2/3 95/2/3
f 97/3/3 95/3/3 94/3/3
f 98/3/3 95/3/3 97/3/3
f 101/1/3 100/1/3 99/1/3
f 102/1/3 100/1/3 101/1/3
f 103/1/4 104/1/4 105/1/4
f 105/1/4 104/1/4 106/1/4
f 107/3/4 108/3/4 109/3/4
f 109/3/4 108/3/4 110/3/4
f 110/3/4 111/3/4 112/3/4
f 112/3/4 111/3/4 113/3/4
f 112/2/4 113/2/4 114/2/4
f 114/2/4 113/2/4 115/2/4
f 114/3/4 115/3/4 119/3/4
f 119/3/4 115/3/4 120/3/4
f 116/3/4 117/3/4 121/3/4
f 117/2/4 118/2/4 122/2/4
f 121/3/4 117/3/4 122/3/4
f 118/3/4 119/3/4 123/3/4
f 122/2/4 118/2/4 123/2/4
f 123/3/4 119/3/4 124/3/4
f 125/3/4 126/3/4 127/3/4
f 127/3/4 126/3/4 128/3/4
f 125/3/4 127/3/4 129/3/4
f 129/3/4 127/3/4 130/3/4
f 127/2/4 128/2/4 131/2/4
f 130/3/4 127/3/4 131/3/4
f 131/2/4 128/2/4 132/2/4
f 129/2/4 130/2/4 133/2/4
f 130/3/4 131/3/4 134/3/4
f 133/2/4 130/2/4 134/2/4
f 131/3/4 132/3/4 134/3/4
f 134/3/4 132/3/4 135/3/4
f 133/3/4 134/3/4 136/3/4
f 134/2/4 135/2/4 136/2/4
f 135/3/4 132/3/4 137/3/4
f 136/2/4 135/2/4 137/2/4
f 133/3/4 136/3/4 138/3/4
f 136/3/4 137/3/4 138/3/4
f 137/3/4 132/3/4 139/3/4
f 138/3/4 137/3/4 139/3/4
f 142/1/5 141/1/5 140/1/5
f 143/1/5 141/1/5 142/1/5
f 149/3/5 145/3/5 144/3/5
f 150/2/5 146/2/5 145/2/5
f 150/3/5 145/3/5 149/3/5
f 151/3/5 147/3/5 146/3/5
f 151/2/5 146/2/5 150/2/5
f 152/3/5 147/3/5 151/3/5
f 154/3/5 150/3/5 149/3/5
f 154/3/5 153/3/5 152/3/5
f 154/3/5 152/3/5 151/3/5
f 154/3/5 151/3/5 150/3/5
f 155/3/5 153/3/5 154/3/5
f 156/2/5 149/2/5 148/2/5
f 157/3/5 154/3/5 149/3/5
f 157/2/5 149/2/5 156/2/5
f 158/3/5 157/3/5 156/3/5
f 158/3/5 154/3/5 157/3/5
f 159/3/5 153/3/5 155/3/5
f 160/3/5 158/3/5 156/3/5
f 160/3/5 159/3/5 158/3/5
f 161/3/5 159/3/5 160/3/5
f 162/2/5 161/2/5 160/2/5
f 163/3/5 159/3/5 161/3/5
f 163/2/5 161/2/5 162/2/5
f 164/3/5 163/3/5 162/3/5
f 165/3/5 159/3/5 163/3/5
f 165/3/5 163/3/5 164/3/5
f 166/3/5 159/3/5 165/3/5
f 167/3/5 153/3/5 159/3/5
f 167/3/5 159/3/5 166/3/5
f 168/3/5 153/3/5 167/3/5
f 169/3/5 153/3/5 168/3/5
f 170/3/5 166/3/5 165/3/5
f 171/2/5 167/2/5 166/2/5
f 171/3/5 166/3/5 170/3/5
f 172/3/5 168/3/5 167/3/5
f 172/2/5 167/2/5 171/2/5
f 173/3/5 168/3/5 172/3/5
f 174/3/6 175/3/6 177/3/6
f 177/3/6 175/3/6 178/3/6
f 178/3/6 175/3/6 179/3/6
f 176/3/6 177/3/6 181/3/6
f 181/3/6 177/3/6 182/3/6
f 179/3/6 180/3/6 183/3/6
f 181/2/6 182/2/6 184/2/6
f 184/2/6 182/2/6 185/2/6
f 184/3/6 185/3/6 186/3/6
f 186/3/6 185/3/6 187/3/6
f 183/3/6 180/3/6 190/3/6
f 190/3/6 180/3/6 191/3/6
f 187/3/6 188/3/6 192/3/6
f 188/2/6 189/2/6 193/2/6
f 192/3/6 188/3/6 193/3/6
f 189/3/6 190/3/6 194/3/6
f 193/2/6 189/2/6 194/2/6
f 194/3/6 190/3/6 195/3/6
f 196/3/6 197/3/6 199/3/6
f 199/3/6 197/3/6 200/3/6
f 197/2/6 198/2/6 201/2/6
f 200/3/6 197/3/6 201/3/6
f 201/2/6 198/2/6 202/2/6
f 199/2/6 200/2/6 203/2/6
f 200/3/6 201/3/6 204/3/6
f 203/2/6 200/2/6 204/2/6
f 201/3/6 202/3/6 204/3/6
f 203/3/6 204/3/6 205/3/6
f 204/3/6 202/3/6 205/3/6
f 205/3/6 202/3/6 206/3/6
f 203/3/6 205/3/6 207/3/6
f 207/3/6 205/3/6 208/3/6
f 205/2/6 206/2/6 209/2/6
f 208/3/6 205/3/6 209/3/6
f 206/3/6 202/3/6 210/3/6
f 209/2/6 206/2/6 210/2/6
f 203/3/6 207/3/6 211/3/6
f 207/2/6 208/2/6 212/2/6
f 211/3/6 207/3/6 212/3/6
f 208/3/6 209/3/6 213/3/6
f 212/2/6 208/2/6 213/2/6
f 209/3/6 210/3/6 213/3/6
f 210/3/6 202/3/6 214/3/6
f 213/3/6 210/3/6 214/3/6
